<?xml version="1.0" encoding="UTF-8" standalone="no"?>
<!-- Created with Inkscape (http://www.inkscape.org/) -->

<svg
   xmlns:dc="http://purl.org/dc/elements/1.1/"
   xmlns:cc="http://creativecommons.org/ns#"
   xmlns:rdf="http://www.w3.org/1999/02/22-rdf-syntax-ns#"
   xmlns:svg="http://www.w3.org/2000/svg"
   xmlns="http://www.w3.org/2000/svg"
   xmlns:xlink="http://www.w3.org/1999/xlink"
   xmlns:sodipodi="http://sodipodi.sourceforge.net/DTD/sodipodi-0.dtd"
   xmlns:inkscape="http://www.inkscape.org/namespaces/inkscape"
   width="800"
   height="800"
   viewBox="0 0 211.66666 211.66667"
   version="1.1"
   id="svg4651"
   inkscape:version="0.92.1 r15371"
   sodipodi:docname="fried_circles.svg"
   inkscape:export-filename="C:\Users\AtomicWest\Documents\Inkscape\tutorial\fried_circles.png"
   inkscape:export-xdpi="96"
   inkscape:export-ydpi="96">
  <defs
     id="defs4645" />
  <sodipodi:namedview
     id="base"
     pagecolor="#ffffff"
     bordercolor="#666666"
     borderopacity="1.0"
     inkscape:pageopacity="0.0"
     inkscape:pageshadow="2"
     inkscape:zoom="0.5"
     inkscape:cx="280.69601"
     inkscape:cy="476.91753"
     inkscape:document-units="mm"
     inkscape:current-layer="layer1"
     showgrid="false"
     inkscape:window-width="1366"
     inkscape:window-height="706"
     inkscape:window-x="1272"
     inkscape:window-y="-8"
     inkscape:window-maximized="1"
     units="px"
     inkscape:object-nodes="false"
     inkscape:snap-others="true"
     inkscape:snap-nodes="false" />
  <metadata
     id="metadata4648">
    <rdf:RDF>
      <cc:Work
         rdf:about="">
        <dc:format>image/svg+xml</dc:format>
        <dc:type
           rdf:resource="http://purl.org/dc/dcmitype/StillImage" />
        <dc:title />
      </cc:Work>
    </rdf:RDF>
  </metadata>
  <g
     inkscape:label="Layer 1"
     inkscape:groupmode="layer"
     id="layer1"
     style="opacity:1"
     transform="translate(0,-85.333306)">
    <path
       style="opacity:1;fill:#c8761d;fill-opacity:1;stroke:none;stroke-width:9.30639935;stroke-miterlimit:4;stroke-dasharray:none;stroke-opacity:1"
       d="m 105.83314,110.33404 a 80.832717,80.832717 0 0 0 -80.832609,80.83259 80.832717,80.832717 0 0 0 80.832609,80.8326 80.832717,80.832717 0 0 0 80.833,-80.8326 80.832717,80.832717 0 0 0 -80.833,-80.83259 z m 0,47.20359 a 33.628878,33.628878 0 0 1 33.62898,33.629 33.628878,33.628878 0 0 1 -33.62898,33.62899 33.628878,33.628878 0 0 1 -33.628593,-33.62899 33.628878,33.628878 0 0 1 33.628593,-33.629 z"
       id="path4653"
       inkscape:connector-curvature="0" />
    <path
       style="opacity:1;fill:#d597ff;fill-opacity:1;stroke:none;stroke-width:35.17379379;stroke-miterlimit:4;stroke-dasharray:none;stroke-opacity:1"
       d="m 403.47852,82.199219 c -3.83944,0.0058 -7.68551,0.0868 -11.53711,0.248047 C 240.37284,83.878422 100.89562,208.39734 84.519531,359.3457 c -10.079612,75.8112 23.851909,231.71876 60.274559,220.65402 55.21067,-16.7723 62.12431,-30.36539 97.67377,20.00001 35.54945,50.36541 115.92901,-20.49858 177.67376,-10e-6 100.8919,27.41489 46.72992,76.18934 137.67374,77.14287 61.69037,1.65633 97.67376,-82.85715 97.67376,-82.85715 60.71116,-91.66932 81.64745,-232.32308 31.04994,-331.83232 C 634.80994,155.88366 522.50103,82.020639 403.47852,82.199219 Z m 2.76953,203.347661 c 75.13697,0.987 132.19729,90.94545 99.80664,159.2832 -26.84391,70.11794 -129.71868,94.21245 -183.51563,40.69336 -53.94082,-47.39074 -47.50577,-147.05193 16.86914,-182.39649 18.84922,-11.74382 41.08716,-17.65452 63.25,-17.55859 1.20148,-0.0296 2.3972,-0.0371 3.58985,-0.0215 z"
       id="path5201"
       inkscape:connector-curvature="0"
       sodipodi:nodetypes="sccszccccsccccccc"
       transform="matrix(0.26458333,0,0,0.26458333,0,85.333306)" />
    <path
       style="opacity:1;fill:#f9d5ff;fill-opacity:1;stroke:none;stroke-width:37.31317139;stroke-miterlimit:4;stroke-dasharray:none;stroke-opacity:1"
       d="m 412.88086,126.88281 c -3.23236,0.0355 -6.47177,0.14222 -9.71875,0.32422 -34.84022,0.72077 -86.68665,14.23354 -86.68665,14.23354 -53.15601,29.26599 -5.72351,46.13141 -5.72351,46.13141 22.30149,-7.27229 85.7455,-13.85034 109.27735,-13.61495 104.96948,0.16983 208.09158,152.50713 212.69391,202.99944 4.60233,50.49232 30.70062,25.63337 30.70062,25.63337 C 667.20571,362.61811 652.7196,293.36323 634.96763,255.92857 596.93931,165.73809 513.084,125.78287 412.88086,126.88281 Z"
       transform="matrix(0.26458333,0,0,0.26458333,0,85.333306)"
       id="path5214"
       inkscape:connector-curvature="0"
       sodipodi:nodetypes="scscczccs" />
    <path
       style="opacity:1;fill:#fcb22e;fill-opacity:0.99450546;stroke:none;stroke-width:15.66750431;stroke-miterlimit:4;stroke-dasharray:none;stroke-opacity:1"
       d="M 104.24981,87.696599 C 89.29124,87.577235 62.212348,93.403362 49.139021,96.226546 35.07944,99.262713 36.997929,111.56998 27.261612,122.72218 7.7889818,145.02658 -1.9675797,174.32411 2.7490484,203.93987 c 0.8798093,6.6104 5.6325079,13.62229 7.8254646,19.8934 2.192957,6.27111 0.767838,12.33061 4.108679,18.09457 3.340842,5.76396 9.860143,9.11571 14.183606,14.20466 4.323463,5.08896 6.451088,11.91511 11.59191,16.16121 5.140821,4.24609 4.533247,11.22566 11.150259,10.73501 0,0 14.516401,3.80677 20.796152,5.86358 6.279752,2.05681 15.407437,6.12821 22.008759,6.8386 6.601322,0.71038 13.322112,0.70559 20.079742,-0.0983 12.72345,-0.98392 26.70539,-9.30815 38.13966,-14.90794 11.43426,-5.59979 22.96667,-11.65015 27.08688,-22.37382 4.57018,-11.89477 19.87824,-13.94981 22.30122,-26.60119 2.37998,-12.42687 8.97342,-24.14464 8.96597,-37.11506 0.53674,-12.37943 -6.1537,-22.58223 -7.4718,-35.81738 -1.21932,-12.24312 -7.84723,-23.15266 -15.45453,-32.84485 -7.60729,-9.69219 -9.94275,-19.68823 -19.8069,-21.96794 -11.95042,-2.76187 -29.37362,-13.776424 -41.69561,-15.886634 -7.15585,-1.460974 -15.00175,-0.36288 -22.3087,-0.421187 z m 3.8634,14.930681 c 13.16443,-0.12263 31.0919,6.53842 40.8592,7.33707 12.84215,1.05007 17.72443,16.90156 25.76483,27.19599 8.04041,10.29443 21.96007,21.34028 20.44366,34.14926 -1.54127,13.01888 0.48169,26.10403 -2.62102,38.78021 -2.5848,13.43389 -13.7752,22.84631 -17.38469,35.64601 -3.30827,11.73154 -16.42487,19.95155 -29.13879,21.98515 -13.29907,2.12719 -28.20017,11.10995 -41.53943,11.32501 -13.339253,0.21506 -28.235678,-3.1395 -37.653281,-13.79691 -9.167485,-6.86844 -22.839709,-9.62926 -30.609562,-19.86804 -7.769852,-10.23879 -13.341498,-22.13471 -16.361994,-34.57336 -3.020496,-12.43865 -3.489842,-25.42003 -1.055092,-37.82975 2.434749,-12.40971 7.773594,-24.24775 16.369478,-34.39972 4.267484,-5.30996 7.759739,-17.75608 14.516946,-18.50859 4.301436,-0.47902 15.450183,-5.36158 18.924892,-11.2109 4.560281,-7.67678 12.6135,-2.51274 19.245021,-4.01597 6.631521,-1.50324 13.428842,-2.26541 20.239832,-2.21546 z"
       id="path5249"
       inkscape:connector-curvature="0"
       sodipodi:nodetypes="ssscssssssscssscssscscssscssscssscsssc" />
    <rect
       style="opacity:0.76000001;fill:#00ff00;fill-opacity:1;stroke:none;stroke-width:5.05918312;stroke-miterlimit:4;stroke-dasharray:none;stroke-opacity:1"
       id="rect5290"
       width="20.637499"
       height="4.7624998"
       x="-52.247715"
       y="154.80363"
       rx="3.0956249"
       ry="2.9765625"
       transform="rotate(-35.005901)"
       inkscape:transform-center-x="-1.0583334"
       inkscape:transform-center-y="-1.0583334" />
    <rect
       inkscape:transform-center-y="0.64511034"
       inkscape:transform-center-x="-0.92397002"
       transform="matrix(0.70236233,0.71181961,-0.57638883,0.81717557,0,0)"
       ry="2.3820219"
       rx="2.4045231"
       y="95.788101"
       x="129.75032"
       height="3.8112347"
       width="16.030153"
       id="rect5292"
       style="opacity:0.76000001;fill:#00ffff;fill-opacity:1;stroke:none;stroke-width:3.98874331;stroke-miterlimit:4;stroke-dasharray:none;stroke-opacity:1" />
    <rect
       inkscape:transform-center-y="-0.97986366"
       inkscape:transform-center-x="-0.11655574"
       transform="matrix(0.32489531,-0.94574999,0.98454918,0.17510828,0,0)"
       ry="2.4138384"
       rx="2.0940049"
       y="113.92609"
       x="-183.28531"
       height="3.8621411"
       width="13.960032"
       id="rect5294"
       style="opacity:0.76000001;fill:#ff00ff;fill-opacity:1;stroke:none;stroke-width:3.74706864;stroke-miterlimit:4;stroke-dasharray:none;stroke-opacity:1" />
    <rect
       inkscape:transform-center-y="-0.72095626"
       inkscape:transform-center-x="1.1307216"
       transform="matrix(-0.74112798,-0.67136377,0.81485478,-0.57966515,0,0)"
       ry="2.6375883"
       rx="2.6726587"
       y="-121.18225"
       x="-244.63113"
       height="4.2201409"
       width="17.817724"
       id="rect5296"
       style="opacity:1;fill:#58e62e;fill-opacity:1;stroke:none;stroke-width:4.42510891;stroke-miterlimit:4;stroke-dasharray:none;stroke-opacity:1" />
    <rect
       style="opacity:1;fill:#a4eda5;fill-opacity:1;stroke:none;stroke-width:3.74369645;stroke-miterlimit:4;stroke-dasharray:none;stroke-opacity:1"
       id="rect5298"
       width="15.053271"
       height="3.5752106"
       x="-88.722031"
       y="-262.91495"
       rx="2.2579906"
       ry="2.2345068"
       transform="matrix(-0.8531462,0.52167189,-0.30413613,-0.95262858,0,0)"
       inkscape:transform-center-x="0.85796645"
       inkscape:transform-center-y="0.74663447" />
    <rect
       inkscape:transform-center-y="-0.15334438"
       inkscape:transform-center-x="1.1269707"
       transform="matrix(-0.95457974,-0.29795557,0.51613153,-0.85650934,0,0)"
       ry="2.2345068"
       rx="2.2579906"
       y="-191.41431"
       x="-244.47362"
       height="3.5752106"
       width="15.053271"
       id="rect5300"
       style="opacity:1;fill:#c3cdf7;fill-opacity:1;stroke:none;stroke-width:3.74369645;stroke-miterlimit:4;stroke-dasharray:none;stroke-opacity:1" />
    <rect
       style="opacity:0.76000001;fill:#c000b3;fill-opacity:1;stroke:none;stroke-width:3.92790961;stroke-miterlimit:4;stroke-dasharray:none;stroke-opacity:1"
       id="rect5302"
       width="16.385094"
       height="3.6158078"
       x="-114.08426"
       y="-267.64813"
       rx="2.4577639"
       ry="2.2598801"
       transform="matrix(-0.98967284,0.14334461,-0.17604718,-0.98438173,0,0)"
       inkscape:transform-center-x="1.1234798"
       inkscape:transform-center-y="0.361873" />
    <rect
       style="opacity:1;fill:#00ffb5;fill-opacity:1;stroke:none;stroke-width:3.47473741;stroke-miterlimit:4;stroke-dasharray:none;stroke-opacity:1"
       id="rect5304"
       width="13.954835"
       height="3.3223891"
       x="-132.04483"
       y="199.00067"
       rx="2.0932255"
       ry="2.0764933"
       transform="matrix(0.76542619,-0.6435237,0.77402797,0.6331514,0,0)"
       inkscape:transform-center-x="-0.62263529"
       inkscape:transform-center-y="-0.75613005" />
    <rect
       inkscape:transform-center-y="-0.9736352"
       inkscape:transform-center-x="-0.10699325"
       transform="matrix(0.28812693,-0.95759223,0.99436769,0.10598536,0,0)"
       ry="2.0764933"
       rx="2.0932255"
       y="164.65862"
       x="-232.69621"
       height="3.3223891"
       width="13.954835"
       id="rect5306"
       style="opacity:1;fill:#00dcb5;fill-opacity:1;stroke:none;stroke-width:3.47473741;stroke-miterlimit:4;stroke-dasharray:none;stroke-opacity:1" />
    <rect
       inkscape:transform-center-y="-0.030424785"
       inkscape:transform-center-x="0.97902042"
       transform="matrix(-0.97721119,-0.21226936,0.02780763,-0.99961329,0,0)"
       ry="2.0764933"
       rx="2.0932255"
       y="-197.22725"
       x="-49.679306"
       height="3.3223891"
       width="13.954835"
       id="rect5308"
       style="opacity:1;fill:#ffb9b5;fill-opacity:1;stroke:none;stroke-width:3.47473741;stroke-miterlimit:4;stroke-dasharray:none;stroke-opacity:1" />
    <rect
       style="opacity:1;fill:#b1f1ea;fill-opacity:1;stroke:none;stroke-width:3.84336162;stroke-miterlimit:4;stroke-dasharray:none;stroke-opacity:1"
       id="rect5310"
       width="15.417735"
       height="3.6790287"
       x="166.53223"
       y="-109.36561"
       rx="2.3126605"
       ry="2.2993932"
       transform="matrix(-0.27005095,0.96284603,-0.8507402,-0.52558644,0,0)"
       inkscape:transform-center-x="0.12666434"
       inkscape:transform-center-y="1.1657386" />
    <rect
       inkscape:transform-center-y="-0.65069439"
       inkscape:transform-center-x="0.8916756"
       transform="matrix(-0.69922517,-0.7149015,0.80365296,-0.59509824,0,0)"
       ry="2.1109271"
       rx="2.2335439"
       y="-51.475822"
       x="-283.3223"
       height="3.3774829"
       width="14.890293"
       id="rect5312"
       style="opacity:0.76000001;fill:#dc007d;fill-opacity:1;stroke:none;stroke-width:3.61894989;stroke-miterlimit:4;stroke-dasharray:none;stroke-opacity:1" />
    <rect
       style="opacity:0.76000001;fill:#dcff7d;fill-opacity:1;stroke:none;stroke-width:3.61894989;stroke-miterlimit:4;stroke-dasharray:none;stroke-opacity:1"
       id="rect5314"
       width="14.890293"
       height="3.3774829"
       x="-17.839798"
       y="-276.42252"
       rx="2.2335439"
       ry="2.1109271"
       transform="matrix(-0.71944806,0.69454625,-0.58984252,-0.8075183,0,0)"
       inkscape:transform-center-x="-0.40183797"
       inkscape:transform-center-y="0.35824666" />
    <circle
       style="opacity:0.691;fill:#ffffff;fill-opacity:1;stroke:none;stroke-width:7.50107336;stroke-miterlimit:4;stroke-dasharray:none;stroke-opacity:1"
       id="path5409"
       cx="105.83331"
       cy="192.22496"
       r="29.104166" />
    <circle
       r="29.104166"
       cy="-132.25685"
       cx="174.02472"
       id="circle6038"
       style="opacity:0.69100001;fill:#ffffff;fill-opacity:1;stroke:none;stroke-width:7.50107336;stroke-miterlimit:4;stroke-dasharray:none;stroke-opacity:1"
       transform="rotate(98.108203)" />
    <text
       xml:space="preserve"
       style="font-style:normal;font-weight:normal;font-size:23.51531982px;line-height:89.99999762%;font-family:sans-serif;letter-spacing:0px;word-spacing:0px;fill:#000000;fill-opacity:1;stroke:none;stroke-width:0.587883"
       id="text6046"
       y="-1.0583333"
       transform="translate(-0.79374993,-1.5875)"><textPath
         xlink:href="#circle6038"
         startOffset="50%"
         id="textPath6048"
         style="font-size:24.69444466px;line-height:80.00000119%;letter-spacing:-0.52916664px;fill:#ffffff"><tspan
           id="tspan6040"
           style="font-style:normal;font-variant:normal;font-weight:normal;font-stretch:normal;font-size:24.69444466px;line-height:80.00000119%;font-family:'Poplar Std';-inkscape-font-specification:'Poplar Std';text-align:center;letter-spacing:-0.52916664px;text-anchor:middle;fill:#ffffff;stroke-width:0.587883"
           y="154.87431"
           x="80.151451">F</tspan><tspan
           id="tspan6042"
           style="font-style:normal;font-variant:normal;font-weight:normal;font-stretch:normal;font-size:24.69444466px;line-height:80.00000119%;font-family:'Poplar Std';-inkscape-font-specification:'Poplar Std';letter-spacing:-0.52916664px;stroke-width:0.587883;fill:#ffffff"
           y="154.87431"
           x="90.78273">RIED</tspan></textPath></text>
    <ellipse
       transform="matrix(-0.5050371,-0.86309763,0.84702131,-0.53155893,0,0)"
       style="opacity:0.69100001;fill:#ffffff;fill-opacity:1;stroke:none;stroke-width:5.26837635;stroke-miterlimit:4;stroke-dasharray:none;stroke-opacity:1"
       id="circle6055"
       cx="-219.00607"
       cy="-11.463972"
       rx="20.347155"
       ry="20.535885" />
    <text
       xml:space="preserve"
       style="font-style:normal;font-weight:normal;font-size:10.58333302px;line-height:1.25;font-family:sans-serif;letter-spacing:0px;word-spacing:0px;fill:#000000;fill-opacity:1;stroke:none;stroke-width:0.26458332"
       x="-18.520834"
       y="147.77498"
       id="text6067"><tspan
         sodipodi:role="line"
         id="tspan6065"
         x="-18.520834"
         y="157.13875"
         style="stroke-width:0.26458332" /></text>
    <text
       xml:space="preserve"
       style="font-style:normal;font-weight:normal;font-size:18.67966652px;line-height:1.25;font-family:sans-serif;letter-spacing:0px;word-spacing:0px;fill:#d597ff;fill-opacity:1;stroke:none;stroke-width:0.46699166;"
       id="text6073"
       transform="translate(0.52916663,1.0583333)"><textPath
         xlink:href="#circle6055"
         id="textPath6075"
         style="font-size:16.93333244px;fill:#d597ff;fill-opacity:1;letter-spacing:-0.66410419px"><tspan
           id="tspan6069"
           style="font-style:normal;font-variant:normal;font-weight:normal;font-stretch:normal;font-size:16.93333244px;font-family:'Poplar Std';-inkscape-font-specification:'Poplar Std';stroke-width:0.46699166;fill:#d597ff;fill-opacity:1;letter-spacing:-0.66410419px"
           y="181.66556"
           x="77.862045">CIRCLES</tspan></textPath></text>
  </g>
</svg>
